<svg width="2482" height="431" viewBox="0 0 2482 431" fill="none" xmlns="http://www.w3.org/2000/svg">
<path d="M726.464 426.916C725.811 426.916 725.198 426.596 724.824 426.06L647.022 314.526C646.603 313.925 645.89 313.604 645.16 313.668C641.884 313.959 637.301 314.104 631.411 314.104H546.037C544.932 314.104 544.037 314.999 544.037 316.104V424.916C544.037 426.021 543.142 426.916 542.037 426.916H474.147C473.042 426.916 472.147 426.021 472.147 424.916V41.816C472.147 40.7114 473.042 39.816 474.147 39.816H631.411C664.96 39.816 694.084 45.346 718.785 56.406C743.854 67.466 763.025 83.319 776.297 103.964C789.569 124.609 796.205 149.126 796.205 177.513C796.205 206.638 789.016 231.707 774.638 252.721C761.049 273.106 741.561 288.46 716.176 298.784C714.975 299.273 714.525 300.751 715.269 301.813L800.638 423.769C801.566 425.095 800.618 426.916 799 426.916H726.464ZM723.762 177.513C723.762 152.812 715.651 133.826 699.43 120.554C683.209 107.282 659.43 100.646 628.093 100.646H546.037C544.932 100.646 544.037 101.541 544.037 102.646V252.933C544.037 254.038 544.932 254.933 546.037 254.933H628.093C659.43 254.933 683.209 248.297 699.43 235.025C715.651 221.384 723.762 202.214 723.762 177.513ZM1147.61 280.924C1147.61 285.38 1147.29 291.589 1146.65 299.55C1146.57 300.587 1145.7 301.385 1144.66 301.385H917.2C915.949 301.385 915.004 302.523 915.263 303.747C919.624 324.394 929.975 340.935 946.314 353.367C963.642 365.902 985.024 372.169 1010.46 372.169C1042.12 372.169 1068.34 361.988 1089.12 341.624C1089.95 340.808 1091.3 340.847 1092.07 341.726L1126.58 381.388C1127.22 382.13 1127.24 383.232 1126.6 383.977C1113.5 399.186 1097.09 410.733 1077.38 418.621C1057.1 426.732 1034.24 430.787 1008.8 430.787C976.361 430.787 947.789 424.335 923.088 411.432C898.388 398.529 879.217 380.648 865.576 357.791C852.304 334.565 845.668 308.39 845.668 279.265C845.668 250.509 852.12 224.702 865.023 201.845C878.295 178.619 896.544 160.554 919.77 147.651C942.996 134.748 969.172 128.296 998.296 128.296C1027.05 128.296 1052.67 134.748 1075.16 147.651C1098.02 160.186 1115.72 178.066 1128.25 201.292C1141.15 224.149 1147.61 250.693 1147.61 280.924ZM998.296 183.596C976.176 183.596 957.374 190.232 941.89 203.504C927.311 215.949 918.22 232.511 914.615 253.187C914.405 254.394 915.343 255.486 916.568 255.486H1079.51C1080.72 255.486 1081.65 254.413 1081.46 253.215C1078.2 232.873 1069.28 216.303 1054.7 203.504C1039.59 190.232 1020.78 183.596 998.296 183.596ZM1349.49 430.787C1318.89 430.787 1291.43 424.335 1267.09 411.432C1242.76 398.529 1223.77 380.648 1210.13 357.791C1196.49 334.565 1189.67 308.39 1189.67 279.265C1189.67 250.14 1196.49 224.149 1210.13 201.292C1223.77 178.435 1242.58 160.554 1266.54 147.651C1290.87 134.748 1318.52 128.296 1349.49 128.296C1378.61 128.296 1404.05 134.195 1425.8 145.992C1447.36 157.49 1463.67 173.892 1474.72 195.196C1475.2 196.132 1474.86 197.281 1473.95 197.813L1424.17 226.856C1423.23 227.402 1422.04 227.102 1421.45 226.193C1413.14 213.378 1402.8 203.788 1390.41 197.421C1377.88 190.416 1364.05 186.914 1348.94 186.914C1323.13 186.914 1301.75 195.393 1284.79 212.352C1267.83 228.942 1259.35 251.246 1259.35 279.265C1259.35 307.284 1267.65 329.772 1284.24 346.731C1301.19 363.321 1322.76 371.616 1348.94 371.616C1364.05 371.616 1377.88 368.298 1390.41 361.662C1402.8 354.941 1413.14 345.167 1421.45 332.337C1422.04 331.428 1423.23 331.128 1424.17 331.674L1473.93 360.705C1474.85 361.241 1475.19 362.405 1474.69 363.344C1463.29 384.653 1446.81 401.235 1425.25 413.091C1403.5 424.888 1378.25 430.787 1349.49 430.787ZM1601.14 167.936C1601.14 169.932 1603.83 170.751 1605.03 169.154C1625.16 142.305 1658.22 128.689 1704.2 128.304C1705.3 128.295 1706.21 129.191 1706.21 130.296V191.693C1706.21 192.945 1705.07 193.888 1703.84 193.683C1698.87 192.857 1694.31 192.444 1690.17 192.444C1663.26 192.444 1642.24 200.37 1627.13 216.223C1612.01 231.707 1604.45 254.196 1604.45 283.689V424.916C1604.45 426.021 1603.55 426.916 1602.45 426.916H1537.33C1536.23 426.916 1535.33 426.021 1535.33 424.916V133.614C1535.33 132.509 1536.23 131.614 1537.33 131.614H1599.14C1600.24 131.614 1601.14 132.509 1601.14 133.614V167.936ZM2051.45 131.614C2052.55 131.614 2053.45 132.509 2053.45 133.614V424.916C2053.45 426.021 2052.55 426.916 2051.45 426.916H1989.64C1988.54 426.916 1987.64 426.021 1987.64 424.916V394.836C1987.64 392.966 1985.27 392.091 1984 393.466C1973.59 404.757 1960.98 413.695 1946.16 420.28C1929.57 427.285 1911.69 430.787 1892.52 430.787C1853.08 430.787 1821.92 419.911 1799.07 398.16C1776.58 376.04 1765.33 343.413 1765.33 300.279V133.614C1765.33 132.509 1766.23 131.614 1767.33 131.614H1832.46C1833.56 131.614 1834.46 132.509 1834.46 133.614V290.878C1834.46 317.422 1840.36 337.33 1852.15 350.602C1864.32 363.505 1881.46 369.957 1903.58 369.957C1928.28 369.957 1947.82 362.399 1962.2 347.284C1976.95 331.8 1984.32 309.68 1984.32 280.924V133.614C1984.32 132.509 1985.22 131.614 1986.32 131.614H2051.45ZM2143.95 133.614C2143.95 132.509 2144.85 131.614 2145.95 131.614H2211.08C2212.18 131.614 2213.08 132.509 2213.08 133.614V424.916C2213.08 426.021 2212.18 426.916 2211.08 426.916H2145.95C2144.85 426.916 2143.95 426.021 2143.95 424.916V133.614ZM2178.79 82.95C2166.26 82.95 2155.75 79.079 2147.27 71.337C2138.79 63.226 2134.55 53.272 2134.55 41.475C2134.55 29.678 2138.79 19.908 2147.27 12.166C2155.75 4.0553 2166.26 0 2178.79 0C2191.33 0 2201.83 3.871 2210.31 11.613C2218.79 18.986 2223.03 28.387 2223.03 39.816C2223.03 51.982 2218.79 62.305 2210.31 70.784C2202.2 78.895 2191.69 82.95 2178.79 82.95ZM2480.79 409.522C2481.1 410.331 2480.87 411.254 2480.18 411.79C2472.28 417.972 2462.7 422.646 2451.46 425.81C2440.03 429.128 2427.86 430.787 2414.96 430.787C2382.51 430.787 2357.45 422.308 2339.75 405.349C2322.05 388.39 2313.21 363.69 2313.21 331.247V191.126C2313.21 190.021 2312.31 189.126 2311.21 189.126H2266.54C2265.44 189.126 2264.54 188.231 2264.54 187.126V135.826C2264.54 134.721 2265.44 133.826 2266.54 133.826H2311.21C2312.31 133.826 2313.21 132.931 2313.21 131.826V68.36C2313.21 67.2554 2314.11 66.36 2315.21 66.36H2380.33C2381.43 66.36 2382.33 67.2554 2382.33 68.36V131.826C2382.33 132.931 2383.23 133.826 2384.33 133.826H2459.41C2460.51 133.826 2461.41 134.721 2461.41 135.826V187.126C2461.41 188.231 2460.51 189.126 2459.41 189.126H2384.33C2383.23 189.126 2382.33 190.021 2382.33 191.126V329.588C2382.33 343.966 2385.83 355.026 2392.84 362.768C2399.84 370.141 2409.98 373.828 2423.25 373.828C2437.68 373.828 2449.86 370.309 2459.81 363.269C2460.9 362.495 2462.45 362.917 2462.94 364.163L2480.79 409.522Z" fill="#212E7C"/>
<path d="M123.355 319.916H49.7711C48.5954 319.916 47.5281 320.603 47.0409 321.673L1.27326 422.173C0.36861 424.159 1.8207 426.416 4.00348 426.416H81.8343C83.0487 426.416 84.1433 425.684 84.607 424.562L126.128 324.062C126.944 322.087 125.492 319.916 123.355 319.916Z" fill="#212E7C"/>
<path d="M297.826 319.916H371.411C372.586 319.916 373.654 320.603 374.141 321.673L419.908 422.173C420.813 424.159 419.361 426.416 417.178 426.416H339.347C338.133 426.416 337.038 425.684 336.575 424.562L295.054 324.062C294.238 322.087 295.689 319.916 297.826 319.916Z" fill="#212E7C"/>
<path d="M123.355 319.916H49.7711C48.5954 319.916 47.5281 320.603 47.0409 321.673L1.27326 422.173C0.36861 424.159 1.8207 426.416 4.00348 426.416H81.8343C83.0487 426.416 84.1433 425.684 84.607 424.562L126.128 324.062C126.944 322.087 125.492 319.916 123.355 319.916Z" stroke="#212E7C"/>
<path d="M297.826 319.916H371.411C372.586 319.916 373.654 320.603 374.141 321.673L419.908 422.173C420.813 424.159 419.361 426.416 417.178 426.416H339.347C338.133 426.416 337.038 425.684 336.575 424.562L295.054 324.062C294.238 322.087 295.689 319.916 297.826 319.916Z" stroke="#212E7C"/>
<path d="M79.9594 257.416H152.336C153.55 257.416 154.644 256.685 155.108 255.564L207.069 130.108C208.092 127.639 211.59 127.639 212.613 130.108L264.574 255.564C265.038 256.685 266.132 257.416 267.345 257.416H341.212C343.387 257.416 344.839 255.176 343.951 253.191L251.135 45.691C250.652 44.611 249.579 43.916 248.396 43.916H172.29C171.104 43.916 170.03 44.614 169.549 45.696L77.2185 253.196C76.3357 255.18 77.7879 257.416 79.9594 257.416Z" fill="#00E0B5" stroke="#00E0B5"/>
</svg>
